<svg xmlns="http://www.w3.org/2000/svg" viewBox="0 0 1200 750" width="1200" height="750">
  <defs>
    <linearGradient id="bg3" x1="0%" y1="0%" x2="100%" y2="100%">
      <stop offset="0%" stop-color="#fdfbf7"/>
      <stop offset="100%" stop-color="#f5ede3"/>
    </linearGradient>
    <filter id="subtle-shadow3" x="-5%" y="-5%" width="110%" height="110%">
      <feDropShadow dx="0" dy="4" stdDeviation="8" flood-opacity="0.08"/>
    </filter>
  </defs>

  <rect width="1200" height="750" fill="url(#bg3)" rx="16"/>

  <g transform="translate(60, 45)" filter="url(#subtle-shadow3)">
    <rect width="1080" height="660" rx="12" fill="#ffffff" stroke="#cbd5e1" stroke-width="1.5"/>
    <rect width="1080" height="54" rx="12" fill="#f8fafc"/>
    <path d="M 0 54 L 1080 54" stroke="#e2e8f0" stroke-width="1.5"/>

    <circle cx="28" cy="27" r="6" fill="#ef4444" opacity="0.8"/>
    <circle cx="48" cy="27" r="6" fill="#f59e0b" opacity="0.8"/>
    <circle cx="68" cy="27" r="6" fill="#10b981" opacity="0.8"/>

    <rect x="180" y="14" width="720" height="26" rx="6" fill="#ffffff" stroke="#e2e8f0" stroke-width="1"/>
    <text x="540" y="31" font-family="-apple-system, BlinkMacSystemFont, 'Segoe UI', Roboto, sans-serif" font-size="13" fill="#64748b" text-anchor="middle">https://project-three-solution.com</text>

    <rect x="0" y="54" width="1080" height="606" fill="#fbfbfa"/>

    <!-- Intranet / Collaboration Platform Wireframe -->
    <rect x="40" y="85" width="260" height="24" rx="4" fill="#0f766e" opacity="0.85"/>
    <rect x="40" y="130" width="1000" height="150" rx="10" fill="#f1f5f9" stroke="#e2e8f0"/>
    <rect x="70" y="160" width="300" height="20" rx="4" fill="#1e293b"/>
    <rect x="70" y="195" width="450" height="12" rx="3" fill="#64748b"/>
    <rect x="70" y="220" width="160" height="32" rx="6" fill="#0f766e"/>

    <!-- Workflow Cards (Power Automate / SharePoint style) -->
    <rect x="40" y="310" width="310" height="230" rx="8" fill="#ffffff" stroke="#cbd5e1"/>
    <circle cx="80" cy="350" r="18" fill="#0f766e" opacity="0.15"/>
    <rect x="110" y="342" width="180" height="16" rx="4" fill="#1e293b"/>
    <rect x="65" y="385" width="260" height="10" rx="3" fill="#cbd5e1"/>
    <rect x="65" y="405" width="220" height="10" rx="3" fill="#cbd5e1"/>
    <rect x="65" y="440" width="120" height="28" rx="6" fill="#f1f5f9"/>

    <rect x="385" y="310" width="310" height="230" rx="8" fill="#ffffff" stroke="#cbd5e1"/>
    <circle cx="425" cy="350" r="18" fill="#0f766e" opacity="0.15"/>
    <rect x="455" y="342" width="180" height="16" rx="4" fill="#1e293b"/>
    <rect x="410" y="385" width="260" height="10" rx="3" fill="#cbd5e1"/>
    <rect x="410" y="405" width="220" height="10" rx="3" fill="#cbd5e1"/>
    <rect x="410" y="440" width="120" height="28" rx="6" fill="#f1f5f9"/>

    <rect x="730" y="310" width="310" height="230" rx="8" fill="#ffffff" stroke="#cbd5e1"/>
    <circle cx="770" cy="350" r="18" fill="#0f766e" opacity="0.15"/>
    <rect x="800" y="342" width="180" height="16" rx="4" fill="#1e293b"/>
    <rect x="755" y="385" width="260" height="10" rx="3" fill="#cbd5e1"/>
    <rect x="755" y="405" width="220" height="10" rx="3" fill="#cbd5e1"/>
    <rect x="755" y="440" width="120" height="28" rx="6" fill="#f1f5f9"/>

    <!-- Center Callout Badge -->
    <rect x="290" y="580" width="500" height="50" rx="8" fill="#0f766e" opacity="0.95"/>
    <text x="540" y="611" font-family="-apple-system, BlinkMacSystemFont, 'Segoe UI', Roboto, sans-serif" font-size="15" font-weight="600" fill="#ffffff" text-anchor="middle">Project 3 Screenshot Placeholder (16:10 or 16:9 recommended)</text>
  </g>
</svg>
